<svg id="visual" viewBox="0 0 900 600" width="900" height="600" xmlns="http://www.w3.org/2000/svg" xmlns:xlink="http://www.w3.org/1999/xlink" version="1.1"><rect x="0" y="0" width="900" height="600" fill="#931C1C"></rect><path d="M0 333L75 288L150 297L225 317L300 251L375 327L450 267L525 305L600 316L675 283L750 277L825 257L900 262L900 601L825 601L750 601L675 601L600 601L525 601L450 601L375 601L300 601L225 601L150 601L75 601L0 601Z" fill="#f5730a"></path><path d="M0 346L75 337L150 383L225 399L300 349L375 372L450 357L525 319L600 401L675 402L750 329L825 375L900 388L900 601L825 601L750 601L675 601L600 601L525 601L450 601L375 601L300 601L225 601L150 601L75 601L0 601Z" fill="#da5b09"></path><path d="M0 394L75 463L150 442L225 379L300 412L375 434L450 453L525 396L600 447L675 397L750 382L825 430L900 385L900 601L825 601L750 601L675 601L600 601L525 601L450 601L375 601L300 601L225 601L150 601L75 601L0 601Z" fill="#be4407"></path><path d="M0 510L75 451L150 445L225 458L300 440L375 519L450 454L525 519L600 479L675 442L750 490L825 492L900 456L900 601L825 601L750 601L675 601L600 601L525 601L450 601L375 601L300 601L225 601L150 601L75 601L0 601Z" fill="#a32d04"></path><path d="M0 545L75 554L150 537L225 582L300 495L375 550L450 569L525 550L600 502L675 548L750 516L825 516L900 502L900 601L825 601L750 601L675 601L600 601L525 601L450 601L375 601L300 601L225 601L150 601L75 601L0 601Z" fill="#871400"></path></svg>